<svg xmlns="http://www.w3.org/2000/svg" viewBox="0 0 640 400" width="100%" height="100%">
  <defs>
    <linearGradient id="bgNight" x1="0" y1="0" x2="0" y2="1">
      <stop offset="0%" stop-color="#090d16" />
      <stop offset="100%" stop-color="#020408" />
    </linearGradient>
    <linearGradient id="hatchBody" x1="0" y1="0" x2="1" y2="1">
      <stop offset="0%" stop-color="#b91c1c" />
      <stop offset="70%" stop-color="#7f1d1d" />
      <stop offset="100%" stop-color="#450a0a" />
    </linearGradient>
  </defs>

  <rect width="640" height="400" fill="url(#bgNight)" />
  <path d="M 0 310 L 640 310 L 640 400 L 0 400 Z" fill="#030712" />

  <!-- IR CCTV Noise Simulation -->
  <text x="25" y="35" fill="#38bdf8" font-family="monospace" font-size="12" font-weight="bold">CAM-233 [KASHMERE GATE ISBT] · IR NIGHT ILLUMINATOR · LOW LUX</text>
  <text x="25" y="55" fill="#64748b" font-family="monospace" font-size="11">VOLKSWAGEN POLO · SKEWED ANGLE · TEMPORAL RECOVERY ACTIVE</text>

  <!-- Shadow -->
  <ellipse cx="320" cy="330" rx="190" ry="22" fill="#000000" opacity="0.8" />

  <!-- Compact Hatchback Body -->
  <path d="M 180 285 C 170 250 175 190 195 165 C 215 140 250 130 320 130 C 390 130 425 140 445 165 C 465 190 470 250 460 285 C 450 305 420 315 320 315 C 220 315 190 305 180 285 Z" fill="url(#hatchBody)" stroke="#991b1b" stroke-width="2" />
  <path d="M 225 165 C 240 140 270 135 320 135 C 370 135 400 140 415 165 C 420 178 415 188 400 190 L 240 190 Z" fill="#090d16" stroke="#1f2937" stroke-width="2" />

  <!-- Night Tail Lights -->
  <path d="M 185 225 L 230 230 L 225 245 L 180 240 Z" fill="#ef4444" opacity="0.9" />
  <path d="M 455 225 L 410 230 L 415 245 L 460 240 Z" fill="#ef4444" opacity="0.9" />

  <!-- Target Box Bounds: x=248, y=248, width=145, height=40 -->
  <g id="licensePlate">
    <rect x="248" y="248" width="145" height="40" rx="4" fill="#f1f5f9" stroke="#0f172a" stroke-width="2" />
    <rect x="248" y="248" width="16" height="40" rx="3" fill="#1d4ed8" />
    <text x="256" y="272" fill="#ffffff" font-family="sans-serif" font-size="7" font-weight="900" text-anchor="middle">IND</text>
    <text x="325" y="274" fill="#0f172a" font-family="'Courier New', Courier, monospace" font-size="16" font-weight="900" letter-spacing="2.5" text-anchor="middle">KA 05 MS 4321</text>
  </g>
</svg>
